<mxfile host="Electron" modified="2023-07-19T16:30:13.957Z" agent="Mozilla/5.0 (Windows NT 10.0; Win64; x64) AppleWebKit/537.36 (KHTML, like Gecko) draw.io/21.6.1 Chrome/112.0.5615.204 Electron/24.6.1 Safari/537.36" etag="T4bMA4qM0vEtPR5_6Pzl" version="21.6.1" type="device">
  <diagram name="Page-1" id="13Af6ci2FVkN9Ae66nOy">
    <mxGraphModel dx="4018" dy="1286" grid="1" gridSize="10" guides="1" tooltips="1" connect="1" arrows="1" fold="1" page="1" pageScale="1" pageWidth="827" pageHeight="1169" math="0" shadow="0">
      <root>
        <mxCell id="0" />
        <mxCell id="1" parent="0" />
        <mxCell id="4sDQIcopacmZ-OnVNA32-1" value="Visualiser la page d&#39;accueil" style="ellipse;whiteSpace=wrap;html=1;" parent="1" vertex="1">
          <mxGeometry x="344" y="170" width="140" height="70" as="geometry" />
        </mxCell>
        <mxCell id="4sDQIcopacmZ-OnVNA32-5" value="Visiteur" style="shape=umlActor;verticalLabelPosition=bottom;verticalAlign=top;html=1;" parent="1" vertex="1">
          <mxGeometry x="60" y="370" width="30" height="60" as="geometry" />
        </mxCell>
        <mxCell id="4sDQIcopacmZ-OnVNA32-11" value="Créér un compte" style="ellipse;whiteSpace=wrap;html=1;" parent="1" vertex="1">
          <mxGeometry x="348" y="624" width="140" height="70" as="geometry" />
        </mxCell>
        <mxCell id="4sDQIcopacmZ-OnVNA32-12" value="Authentification" style="ellipse;whiteSpace=wrap;html=1;fillColor=#fff2cc;strokeColor=#d6b656;" parent="1" vertex="1">
          <mxGeometry x="634" y="1030" width="140" height="70" as="geometry" />
        </mxCell>
        <mxCell id="4sDQIcopacmZ-OnVNA32-13" value="Visualiser les donées de son conseiller" style="ellipse;whiteSpace=wrap;html=1;" parent="1" vertex="1">
          <mxGeometry x="340" y="807" width="140" height="70" as="geometry" />
        </mxCell>
        <mxCell id="4sDQIcopacmZ-OnVNA32-25" value="Viualiser son espace rangé par commands effectuées ou en cours" style="ellipse;whiteSpace=wrap;html=1;" parent="1" vertex="1">
          <mxGeometry x="-130" y="1071" width="140" height="70" as="geometry" />
        </mxCell>
        <mxCell id="4sDQIcopacmZ-OnVNA32-26" value="Vider le panier" style="ellipse;whiteSpace=wrap;html=1;" parent="1" vertex="1">
          <mxGeometry x="590" y="860" width="140" height="70" as="geometry" />
        </mxCell>
        <mxCell id="4sDQIcopacmZ-OnVNA32-27" value="Payar la commande" style="ellipse;whiteSpace=wrap;html=1;" parent="1" vertex="1">
          <mxGeometry x="180" y="1140" width="140" height="70" as="geometry" />
        </mxCell>
        <mxCell id="4sDQIcopacmZ-OnVNA32-28" value="Supprimer l&#39;article du panier" style="ellipse;whiteSpace=wrap;html=1;" parent="1" vertex="1">
          <mxGeometry x="320" y="1150" width="140" height="70" as="geometry" />
        </mxCell>
        <mxCell id="4sDQIcopacmZ-OnVNA32-29" value="Modifier l&#39;article ajouté&amp;nbsp;" style="ellipse;whiteSpace=wrap;html=1;" parent="1" vertex="1">
          <mxGeometry x="334" y="1073" width="140" height="70" as="geometry" />
        </mxCell>
        <mxCell id="4sDQIcopacmZ-OnVNA32-30" value="Visualiser le panier" style="ellipse;whiteSpace=wrap;html=1;" parent="1" vertex="1">
          <mxGeometry x="334" y="982" width="140" height="70" as="geometry" />
        </mxCell>
        <mxCell id="4sDQIcopacmZ-OnVNA32-31" value="Ajouter l&#39;article dans le panier" style="ellipse;whiteSpace=wrap;html=1;" parent="1" vertex="1">
          <mxGeometry x="339" y="896" width="140" height="70" as="geometry" />
        </mxCell>
        <mxCell id="4sDQIcopacmZ-OnVNA32-32" value="Envoyer un formulaire de contact" style="ellipse;whiteSpace=wrap;html=1;" parent="1" vertex="1">
          <mxGeometry x="323" y="529" width="140" height="70" as="geometry" />
        </mxCell>
        <mxCell id="4sDQIcopacmZ-OnVNA32-35" value="Visualiser les produits par catégorie" style="ellipse;whiteSpace=wrap;html=1;" parent="1" vertex="1">
          <mxGeometry x="333" y="440" width="140" height="70" as="geometry" />
        </mxCell>
        <mxCell id="4sDQIcopacmZ-OnVNA32-36" value="Visualise tous les produits" style="ellipse;whiteSpace=wrap;html=1;" parent="1" vertex="1">
          <mxGeometry x="343" y="352" width="140" height="70" as="geometry" />
        </mxCell>
        <mxCell id="4sDQIcopacmZ-OnVNA32-37" value="Visualiser la présentation de la société" style="ellipse;whiteSpace=wrap;html=1;" parent="1" vertex="1">
          <mxGeometry x="344" y="260" width="140" height="70" as="geometry" />
        </mxCell>
        <mxCell id="4sDQIcopacmZ-OnVNA32-39" value="Supprimer un consultant" style="ellipse;whiteSpace=wrap;html=1;" parent="1" vertex="1">
          <mxGeometry x="279" y="1536" width="140" height="70" as="geometry" />
        </mxCell>
        <mxCell id="4sDQIcopacmZ-OnVNA32-40" value="Mettre à jour les données d&#39;un consultant (mail; password, le nom..)" style="ellipse;whiteSpace=wrap;html=1;" parent="1" vertex="1">
          <mxGeometry x="353" y="1406" width="140" height="70" as="geometry" />
        </mxCell>
        <mxCell id="4sDQIcopacmZ-OnVNA32-41" value="Visualiser la liste de consultants" style="ellipse;whiteSpace=wrap;html=1;" parent="1" vertex="1">
          <mxGeometry x="349" y="1266" width="144" height="60" as="geometry" />
        </mxCell>
        <mxCell id="4sDQIcopacmZ-OnVNA32-43" value="Visualiser la liste de consultants" style="ellipse;whiteSpace=wrap;html=1;" parent="1" vertex="1">
          <mxGeometry x="473" y="1496" width="140" height="70" as="geometry" />
        </mxCell>
        <mxCell id="4sDQIcopacmZ-OnVNA32-45" value="Ajouter un consultant&amp;nbsp;" style="ellipse;whiteSpace=wrap;html=1;" parent="1" vertex="1">
          <mxGeometry x="529" y="1336" width="140" height="70" as="geometry" />
        </mxCell>
        <mxCell id="4sDQIcopacmZ-OnVNA32-46" value="Visualiser les clients avec leurs données" style="ellipse;whiteSpace=wrap;html=1;" parent="1" vertex="1">
          <mxGeometry x="10" y="1626" width="140" height="70" as="geometry" />
        </mxCell>
        <mxCell id="4sDQIcopacmZ-OnVNA32-48" value="Visualiser les details de commandes de ses clients" style="ellipse;whiteSpace=wrap;html=1;" parent="1" vertex="1">
          <mxGeometry x="494" y="1860" width="140" height="70" as="geometry" />
        </mxCell>
        <mxCell id="4sDQIcopacmZ-OnVNA32-49" value="Changer le status de la commende (commandée &amp;lt;=&amp;gt; en cours)" style="ellipse;whiteSpace=wrap;html=1;" parent="1" vertex="1">
          <mxGeometry x="337" y="1930" width="140" height="70" as="geometry" />
        </mxCell>
        <mxCell id="4sDQIcopacmZ-OnVNA32-50" value="Visualiser la liste de ses clients" style="ellipse;whiteSpace=wrap;html=1;" parent="1" vertex="1">
          <mxGeometry x="320" y="1810" width="140" height="70" as="geometry" />
        </mxCell>
        <mxCell id="4sDQIcopacmZ-OnVNA32-51" value="Visualiser toutes les categories&amp;nbsp;" style="ellipse;whiteSpace=wrap;html=1;" parent="1" vertex="1">
          <mxGeometry x="360" y="2310" width="140" height="70" as="geometry" />
        </mxCell>
        <mxCell id="4sDQIcopacmZ-OnVNA32-52" value="Ecrire un commentaire concerant la commande de son client" style="ellipse;whiteSpace=wrap;html=1;" parent="1" vertex="1">
          <mxGeometry x="260" y="2020" width="140" height="70" as="geometry" />
        </mxCell>
        <mxCell id="4sDQIcopacmZ-OnVNA32-56" value="Ranger les produits selon catégorie" style="ellipse;whiteSpace=wrap;html=1;" parent="1" vertex="1">
          <mxGeometry x="494" y="2000" width="140" height="70" as="geometry" />
        </mxCell>
        <mxCell id="4sDQIcopacmZ-OnVNA32-67" value="" style="endArrow=classic;html=1;rounded=0;" parent="1" edge="1">
          <mxGeometry width="50" height="50" relative="1" as="geometry">
            <mxPoint x="90" y="384" as="sourcePoint" />
            <mxPoint x="340" y="210" as="targetPoint" />
            <Array as="points" />
          </mxGeometry>
        </mxCell>
        <mxCell id="4sDQIcopacmZ-OnVNA32-68" value="" style="endArrow=classic;html=1;rounded=0;" parent="1" edge="1">
          <mxGeometry width="50" height="50" relative="1" as="geometry">
            <mxPoint x="100" y="390" as="sourcePoint" />
            <mxPoint x="340" y="300" as="targetPoint" />
            <Array as="points" />
          </mxGeometry>
        </mxCell>
        <mxCell id="4sDQIcopacmZ-OnVNA32-70" value="" style="endArrow=classic;html=1;rounded=0;" parent="1" edge="1">
          <mxGeometry width="50" height="50" relative="1" as="geometry">
            <mxPoint x="110" y="400" as="sourcePoint" />
            <mxPoint x="340" y="390" as="targetPoint" />
            <Array as="points" />
          </mxGeometry>
        </mxCell>
        <mxCell id="4sDQIcopacmZ-OnVNA32-71" value="" style="endArrow=classic;html=1;rounded=0;" parent="1" edge="1">
          <mxGeometry width="50" height="50" relative="1" as="geometry">
            <mxPoint x="130" y="420" as="sourcePoint" />
            <mxPoint x="330" y="470" as="targetPoint" />
            <Array as="points" />
          </mxGeometry>
        </mxCell>
        <mxCell id="4sDQIcopacmZ-OnVNA32-72" value="" style="endArrow=classic;html=1;rounded=0;" parent="1" edge="1">
          <mxGeometry width="50" height="50" relative="1" as="geometry">
            <mxPoint x="120" y="440" as="sourcePoint" />
            <mxPoint x="330" y="550" as="targetPoint" />
            <Array as="points" />
          </mxGeometry>
        </mxCell>
        <mxCell id="4sDQIcopacmZ-OnVNA32-73" value="" style="endArrow=classic;html=1;rounded=0;" parent="1" edge="1">
          <mxGeometry width="50" height="50" relative="1" as="geometry">
            <mxPoint x="118" y="455" as="sourcePoint" />
            <mxPoint x="358.89882938969276" y="640.638882863025" as="targetPoint" />
            <Array as="points" />
          </mxGeometry>
        </mxCell>
        <mxCell id="4sDQIcopacmZ-OnVNA32-74" value="Customer" style="shape=umlActor;verticalLabelPosition=bottom;verticalAlign=top;html=1;" parent="1" vertex="1">
          <mxGeometry x="63" y="816" width="30" height="60" as="geometry" />
        </mxCell>
        <mxCell id="4sDQIcopacmZ-OnVNA32-77" value="" style="endArrow=classic;html=1;rounded=0;" parent="1" edge="1">
          <mxGeometry width="50" height="50" relative="1" as="geometry">
            <mxPoint x="113" y="846" as="sourcePoint" />
            <mxPoint x="343" y="836" as="targetPoint" />
            <Array as="points" />
          </mxGeometry>
        </mxCell>
        <mxCell id="4sDQIcopacmZ-OnVNA32-78" value="" style="endArrow=classic;html=1;rounded=0;" parent="1" edge="1">
          <mxGeometry width="50" height="50" relative="1" as="geometry">
            <mxPoint x="133" y="880" as="sourcePoint" />
            <mxPoint x="333" y="916" as="targetPoint" />
            <Array as="points" />
          </mxGeometry>
        </mxCell>
        <mxCell id="4sDQIcopacmZ-OnVNA32-79" value="" style="endArrow=classic;html=1;rounded=0;" parent="1" edge="1">
          <mxGeometry width="50" height="50" relative="1" as="geometry">
            <mxPoint x="123" y="886" as="sourcePoint" />
            <mxPoint x="333" y="996" as="targetPoint" />
            <Array as="points" />
          </mxGeometry>
        </mxCell>
        <mxCell id="4sDQIcopacmZ-OnVNA32-80" value="" style="endArrow=classic;html=1;rounded=0;" parent="1" edge="1">
          <mxGeometry width="50" height="50" relative="1" as="geometry">
            <mxPoint x="121" y="901" as="sourcePoint" />
            <mxPoint x="360" y="1070" as="targetPoint" />
            <Array as="points" />
          </mxGeometry>
        </mxCell>
        <mxCell id="4sDQIcopacmZ-OnVNA32-81" value="" style="endArrow=classic;html=1;rounded=0;entryX=0.1;entryY=0.129;entryDx=0;entryDy=0;entryPerimeter=0;" parent="1" target="4sDQIcopacmZ-OnVNA32-28" edge="1">
          <mxGeometry width="50" height="50" relative="1" as="geometry">
            <mxPoint x="100" y="900" as="sourcePoint" />
            <mxPoint x="334.89882938969276" y="1175.638882863025" as="targetPoint" />
            <Array as="points" />
          </mxGeometry>
        </mxCell>
        <mxCell id="4sDQIcopacmZ-OnVNA32-82" value="" style="endArrow=classic;html=1;rounded=0;entryX=0.043;entryY=0.2;entryDx=0;entryDy=0;entryPerimeter=0;" parent="1" target="4sDQIcopacmZ-OnVNA32-27" edge="1">
          <mxGeometry width="50" height="50" relative="1" as="geometry">
            <mxPoint x="80" y="900" as="sourcePoint" />
            <mxPoint x="344.89882938969276" y="1185.638882863025" as="targetPoint" />
            <Array as="points" />
          </mxGeometry>
        </mxCell>
        <mxCell id="4sDQIcopacmZ-OnVNA32-83" value="" style="endArrow=classic;html=1;rounded=0;entryX=0.014;entryY=0.371;entryDx=0;entryDy=0;entryPerimeter=0;" parent="1" target="4sDQIcopacmZ-OnVNA32-26" edge="1">
          <mxGeometry width="50" height="50" relative="1" as="geometry">
            <mxPoint x="130" y="880" as="sourcePoint" />
            <mxPoint x="354.89882938969276" y="1195.638882863025" as="targetPoint" />
            <Array as="points">
              <mxPoint x="140" y="880" />
            </Array>
          </mxGeometry>
        </mxCell>
        <mxCell id="4sDQIcopacmZ-OnVNA32-84" value="" style="endArrow=classic;html=1;rounded=0;" parent="1" target="4sDQIcopacmZ-OnVNA32-25" edge="1">
          <mxGeometry width="50" height="50" relative="1" as="geometry">
            <mxPoint x="50" y="900" as="sourcePoint" />
            <mxPoint x="340" y="1440" as="targetPoint" />
            <Array as="points" />
          </mxGeometry>
        </mxCell>
        <mxCell id="4sDQIcopacmZ-OnVNA32-87" value="Administrateur" style="shape=umlActor;verticalLabelPosition=bottom;verticalAlign=top;html=1;" parent="1" vertex="1">
          <mxGeometry x="49" y="1356" width="30" height="60" as="geometry" />
        </mxCell>
        <mxCell id="4sDQIcopacmZ-OnVNA32-89" value="" style="endArrow=classic;html=1;rounded=0;exitX=1;exitY=0.3333333333333333;exitDx=0;exitDy=0;exitPerimeter=0;" parent="1" source="4sDQIcopacmZ-OnVNA32-87" target="4sDQIcopacmZ-OnVNA32-41" edge="1">
          <mxGeometry width="50" height="50" relative="1" as="geometry">
            <mxPoint x="89" y="1026" as="sourcePoint" />
            <mxPoint x="349" y="1346" as="targetPoint" />
            <Array as="points" />
          </mxGeometry>
        </mxCell>
        <mxCell id="4sDQIcopacmZ-OnVNA32-90" value="" style="endArrow=classic;html=1;rounded=0;" parent="1" source="4sDQIcopacmZ-OnVNA32-87" edge="1">
          <mxGeometry width="50" height="50" relative="1" as="geometry">
            <mxPoint x="99" y="1284" as="sourcePoint" />
            <mxPoint x="520" y="1370" as="targetPoint" />
            <Array as="points" />
          </mxGeometry>
        </mxCell>
        <mxCell id="4sDQIcopacmZ-OnVNA32-91" value="" style="endArrow=classic;html=1;rounded=0;" parent="1" target="4sDQIcopacmZ-OnVNA32-39" edge="1">
          <mxGeometry width="50" height="50" relative="1" as="geometry">
            <mxPoint x="89" y="1398" as="sourcePoint" />
            <mxPoint x="359" y="1436" as="targetPoint" />
            <Array as="points" />
          </mxGeometry>
        </mxCell>
        <mxCell id="4sDQIcopacmZ-OnVNA32-92" value="" style="endArrow=classic;html=1;rounded=0;" parent="1" target="4sDQIcopacmZ-OnVNA32-46" edge="1">
          <mxGeometry width="50" height="50" relative="1" as="geometry">
            <mxPoint x="64" y="1450" as="sourcePoint" />
            <mxPoint x="378" y="1519" as="targetPoint" />
            <Array as="points" />
          </mxGeometry>
        </mxCell>
        <mxCell id="4sDQIcopacmZ-OnVNA32-93" value="" style="endArrow=classic;html=1;rounded=0;" parent="1" edge="1">
          <mxGeometry width="50" height="50" relative="1" as="geometry">
            <mxPoint x="89" y="1398" as="sourcePoint" />
            <mxPoint x="359" y="1436" as="targetPoint" />
            <Array as="points" />
          </mxGeometry>
        </mxCell>
        <mxCell id="4sDQIcopacmZ-OnVNA32-94" value="" style="endArrow=classic;html=1;rounded=0;" parent="1" edge="1">
          <mxGeometry width="50" height="50" relative="1" as="geometry">
            <mxPoint x="99" y="1408" as="sourcePoint" />
            <mxPoint x="469" y="1526" as="targetPoint" />
            <Array as="points" />
          </mxGeometry>
        </mxCell>
        <mxCell id="4sDQIcopacmZ-OnVNA32-96" value="" style="endArrow=classic;html=1;rounded=0;entryX=0;entryY=0.5;entryDx=0;entryDy=0;exitX=1;exitY=0.3333333333333333;exitDx=0;exitDy=0;exitPerimeter=0;" parent="1" target="4sDQIcopacmZ-OnVNA32-50" edge="1">
          <mxGeometry width="50" height="50" relative="1" as="geometry">
            <mxPoint x="80" y="1920" as="sourcePoint" />
            <mxPoint x="318" y="1657" as="targetPoint" />
            <Array as="points" />
          </mxGeometry>
        </mxCell>
        <mxCell id="4sDQIcopacmZ-OnVNA32-97" value="" style="endArrow=classic;html=1;rounded=0;entryX=0;entryY=0.5;entryDx=0;entryDy=0;exitX=1;exitY=0.3333333333333333;exitDx=0;exitDy=0;exitPerimeter=0;" parent="1" target="4sDQIcopacmZ-OnVNA32-48" edge="1">
          <mxGeometry width="50" height="50" relative="1" as="geometry">
            <mxPoint x="90" y="1930" as="sourcePoint" />
            <mxPoint x="330" y="1855" as="targetPoint" />
            <Array as="points" />
          </mxGeometry>
        </mxCell>
        <mxCell id="4sDQIcopacmZ-OnVNA32-98" value="" style="endArrow=classic;html=1;rounded=0;entryX=0.071;entryY=0.143;entryDx=0;entryDy=0;entryPerimeter=0;" parent="1" target="4sDQIcopacmZ-OnVNA32-52" edge="1">
          <mxGeometry width="50" height="50" relative="1" as="geometry">
            <mxPoint x="110" y="1960" as="sourcePoint" />
            <mxPoint x="250" y="2050" as="targetPoint" />
            <Array as="points" />
          </mxGeometry>
        </mxCell>
        <mxCell id="4sDQIcopacmZ-OnVNA32-99" value="Moddifier, supprimer une catégorie" style="ellipse;whiteSpace=wrap;html=1;" parent="1" vertex="1">
          <mxGeometry x="300" y="2130" width="140" height="70" as="geometry" />
        </mxCell>
        <mxCell id="4sDQIcopacmZ-OnVNA32-100" value="Ajouter une categorie" style="ellipse;whiteSpace=wrap;html=1;" parent="1" vertex="1">
          <mxGeometry x="260" y="2400" width="140" height="70" as="geometry" />
        </mxCell>
        <mxCell id="4sDQIcopacmZ-OnVNA32-101" value="Voir les details d&#39;un produits" style="ellipse;whiteSpace=wrap;html=1;" parent="1" vertex="1">
          <mxGeometry x="350" y="2210" width="140" height="70" as="geometry" />
        </mxCell>
        <mxCell id="4sDQIcopacmZ-OnVNA32-102" value="Mettre à jour un produit" style="ellipse;whiteSpace=wrap;html=1;" parent="1" vertex="1">
          <mxGeometry x="-210" y="2080" width="140" height="70" as="geometry" />
        </mxCell>
        <mxCell id="4sDQIcopacmZ-OnVNA32-103" value="Supprimer un produit" style="ellipse;whiteSpace=wrap;html=1;" parent="1" vertex="1">
          <mxGeometry x="110" y="2390" width="140" height="70" as="geometry" />
        </mxCell>
        <mxCell id="4sDQIcopacmZ-OnVNA32-104" value="Créer un nouveau produit" style="ellipse;whiteSpace=wrap;html=1;" parent="1" vertex="1">
          <mxGeometry x="20" y="2310" width="140" height="70" as="geometry" />
        </mxCell>
        <mxCell id="4sDQIcopacmZ-OnVNA32-105" value="Ecrire un message au client (suelement via API)" style="ellipse;whiteSpace=wrap;html=1;" parent="1" vertex="1">
          <mxGeometry x="-140" y="2208" width="140" height="70" as="geometry" />
        </mxCell>
        <mxCell id="4sDQIcopacmZ-OnVNA32-106" value="" style="endArrow=classic;html=1;rounded=0;entryX=0;entryY=0.5;entryDx=0;entryDy=0;exitX=1;exitY=0.3333333333333333;exitDx=0;exitDy=0;exitPerimeter=0;" parent="1" target="4sDQIcopacmZ-OnVNA32-49" edge="1">
          <mxGeometry width="50" height="50" relative="1" as="geometry">
            <mxPoint x="110" y="1950" as="sourcePoint" />
            <mxPoint x="347" y="1975" as="targetPoint" />
            <Array as="points" />
          </mxGeometry>
        </mxCell>
        <mxCell id="4sDQIcopacmZ-OnVNA32-107" value="" style="endArrow=classic;html=1;rounded=0;" parent="1" target="4sDQIcopacmZ-OnVNA32-99" edge="1">
          <mxGeometry width="50" height="50" relative="1" as="geometry">
            <mxPoint x="110" y="1970" as="sourcePoint" />
            <mxPoint x="260" y="2110" as="targetPoint" />
            <Array as="points" />
          </mxGeometry>
        </mxCell>
        <mxCell id="4sDQIcopacmZ-OnVNA32-108" value="" style="endArrow=classic;html=1;rounded=0;entryX=0.014;entryY=0.4;entryDx=0;entryDy=0;exitX=1;exitY=0.3333333333333333;exitDx=0;exitDy=0;exitPerimeter=0;entryPerimeter=0;" parent="1" edge="1">
          <mxGeometry width="50" height="50" relative="1" as="geometry">
            <mxPoint x="120" y="1960" as="sourcePoint" />
            <mxPoint x="506" y="2038" as="targetPoint" />
            <Array as="points" />
          </mxGeometry>
        </mxCell>
        <mxCell id="4sDQIcopacmZ-OnVNA32-109" value="" style="endArrow=classic;html=1;rounded=0;entryX=0;entryY=0.5;entryDx=0;entryDy=0;" parent="1" target="4sDQIcopacmZ-OnVNA32-101" edge="1">
          <mxGeometry width="50" height="50" relative="1" as="geometry">
            <mxPoint x="90" y="1980" as="sourcePoint" />
            <mxPoint x="341" y="2146" as="targetPoint" />
            <Array as="points" />
          </mxGeometry>
        </mxCell>
        <mxCell id="4sDQIcopacmZ-OnVNA32-110" value="" style="endArrow=classic;html=1;rounded=0;entryX=0.057;entryY=0.186;entryDx=0;entryDy=0;entryPerimeter=0;" parent="1" target="4sDQIcopacmZ-OnVNA32-51" edge="1">
          <mxGeometry width="50" height="50" relative="1" as="geometry">
            <mxPoint x="110" y="1980" as="sourcePoint" />
            <mxPoint x="360" y="2255" as="targetPoint" />
            <Array as="points" />
          </mxGeometry>
        </mxCell>
        <mxCell id="4sDQIcopacmZ-OnVNA32-111" value="" style="endArrow=classic;html=1;rounded=0;entryX=0.5;entryY=0;entryDx=0;entryDy=0;" parent="1" target="4sDQIcopacmZ-OnVNA32-100" edge="1">
          <mxGeometry width="50" height="50" relative="1" as="geometry">
            <mxPoint x="100" y="2000" as="sourcePoint" />
            <mxPoint x="378" y="2333" as="targetPoint" />
            <Array as="points" />
          </mxGeometry>
        </mxCell>
        <mxCell id="4sDQIcopacmZ-OnVNA32-112" value="" style="endArrow=classic;html=1;rounded=0;entryX=0.5;entryY=0;entryDx=0;entryDy=0;" parent="1" target="4sDQIcopacmZ-OnVNA32-103" edge="1">
          <mxGeometry width="50" height="50" relative="1" as="geometry">
            <mxPoint x="90" y="1990" as="sourcePoint" />
            <mxPoint x="340" y="2410" as="targetPoint" />
            <Array as="points" />
          </mxGeometry>
        </mxCell>
        <mxCell id="4sDQIcopacmZ-OnVNA32-113" value="" style="endArrow=classic;html=1;rounded=0;" parent="1" target="4sDQIcopacmZ-OnVNA32-104" edge="1">
          <mxGeometry width="50" height="50" relative="1" as="geometry">
            <mxPoint x="70" y="1990" as="sourcePoint" />
            <mxPoint x="190" y="2400" as="targetPoint" />
            <Array as="points" />
          </mxGeometry>
        </mxCell>
        <mxCell id="4sDQIcopacmZ-OnVNA32-114" value="" style="endArrow=classic;html=1;rounded=0;entryX=0.8;entryY=0.114;entryDx=0;entryDy=0;entryPerimeter=0;" parent="1" target="4sDQIcopacmZ-OnVNA32-105" edge="1">
          <mxGeometry width="50" height="50" relative="1" as="geometry">
            <mxPoint x="50" y="1990" as="sourcePoint" />
            <mxPoint x="103" y="2320" as="targetPoint" />
            <Array as="points" />
          </mxGeometry>
        </mxCell>
        <mxCell id="4sDQIcopacmZ-OnVNA32-115" value="" style="endArrow=classic;html=1;rounded=0;entryX=0.564;entryY=0;entryDx=0;entryDy=0;entryPerimeter=0;" parent="1" edge="1">
          <mxGeometry width="50" height="50" relative="1" as="geometry">
            <mxPoint x="50" y="1942.0941732960655" as="sourcePoint" />
            <mxPoint x="-121.03999999999996" y="2080" as="targetPoint" />
            <Array as="points" />
          </mxGeometry>
        </mxCell>
        <mxCell id="4sDQIcopacmZ-OnVNA32-118" value="Consultant" style="shape=umlActor;verticalLabelPosition=bottom;verticalAlign=top;html=1;" parent="1" vertex="1">
          <mxGeometry x="50" y="1880" width="30" height="60" as="geometry" />
        </mxCell>
        <mxCell id="4sDQIcopacmZ-OnVNA32-121" value="&amp;lt;&amp;lt;include&amp;gt;&amp;gt;" style="endArrow=open;endSize=12;dashed=1;html=1;rounded=0;entryX=0.343;entryY=-0.043;entryDx=0;entryDy=0;entryPerimeter=0;fillColor=#fff2cc;strokeColor=#d6b656;exitX=1;exitY=0.5;exitDx=0;exitDy=0;" parent="1" source="4sDQIcopacmZ-OnVNA32-13" target="4sDQIcopacmZ-OnVNA32-12" edge="1">
          <mxGeometry width="160" relative="1" as="geometry">
            <mxPoint x="490" y="840" as="sourcePoint" />
            <mxPoint x="668" y="867" as="targetPoint" />
          </mxGeometry>
        </mxCell>
        <mxCell id="4sDQIcopacmZ-OnVNA32-122" value="&amp;lt;&amp;lt;include&amp;gt;&amp;gt;" style="endArrow=open;endSize=12;dashed=1;html=1;rounded=0;entryX=-0.007;entryY=0.343;entryDx=0;entryDy=0;entryPerimeter=0;fillColor=#fff2cc;strokeColor=#d6b656;" parent="1" source="4sDQIcopacmZ-OnVNA32-31" target="4sDQIcopacmZ-OnVNA32-12" edge="1">
          <mxGeometry width="160" relative="1" as="geometry">
            <mxPoint x="500" y="850" as="sourcePoint" />
            <mxPoint x="692" y="1037" as="targetPoint" />
          </mxGeometry>
        </mxCell>
        <mxCell id="4sDQIcopacmZ-OnVNA32-123" value="&amp;lt;&amp;lt;include&amp;gt;&amp;gt;" style="endArrow=open;endSize=12;dashed=1;html=1;rounded=0;fillColor=#fff2cc;strokeColor=#d6b656;exitX=1;exitY=0.5;exitDx=0;exitDy=0;" parent="1" target="4sDQIcopacmZ-OnVNA32-12" edge="1">
          <mxGeometry width="160" relative="1" as="geometry">
            <mxPoint x="467" y="1035" as="sourcePoint" />
            <mxPoint x="669" y="1220" as="targetPoint" />
          </mxGeometry>
        </mxCell>
        <mxCell id="4sDQIcopacmZ-OnVNA32-124" value="&amp;lt;&amp;lt;include&amp;gt;&amp;gt;" style="endArrow=open;endSize=12;dashed=1;html=1;rounded=0;fillColor=#fff2cc;strokeColor=#d6b656;entryX=0.014;entryY=0.671;entryDx=0;entryDy=0;entryPerimeter=0;" parent="1" target="4sDQIcopacmZ-OnVNA32-12" edge="1">
          <mxGeometry width="160" relative="1" as="geometry">
            <mxPoint x="477" y="1110" as="sourcePoint" />
            <mxPoint x="646" y="1066" as="targetPoint" />
          </mxGeometry>
        </mxCell>
        <mxCell id="4sDQIcopacmZ-OnVNA32-125" value="&amp;lt;&amp;lt;include&amp;gt;&amp;gt;" style="endArrow=open;endSize=12;dashed=1;html=1;rounded=0;fillColor=#fff2cc;strokeColor=#d6b656;entryX=0.014;entryY=0.671;entryDx=0;entryDy=0;entryPerimeter=0;exitX=1.014;exitY=0.329;exitDx=0;exitDy=0;exitPerimeter=0;" parent="1" source="4sDQIcopacmZ-OnVNA32-28" edge="1">
          <mxGeometry width="160" relative="1" as="geometry">
            <mxPoint x="487" y="1120" as="sourcePoint" />
            <mxPoint x="646" y="1087" as="targetPoint" />
          </mxGeometry>
        </mxCell>
        <mxCell id="4sDQIcopacmZ-OnVNA32-126" value="&amp;lt;&amp;lt;include&amp;gt;&amp;gt;" style="endArrow=open;endSize=12;dashed=1;html=1;rounded=0;fillColor=#fff2cc;strokeColor=#d6b656;" parent="1" edge="1">
          <mxGeometry width="160" relative="1" as="geometry">
            <mxPoint x="20" y="1100" as="sourcePoint" />
            <mxPoint x="610" y="1060" as="targetPoint" />
          </mxGeometry>
        </mxCell>
        <mxCell id="4sDQIcopacmZ-OnVNA32-127" value="&amp;lt;&amp;lt;include&amp;gt;&amp;gt;" style="endArrow=open;endSize=12;dashed=1;html=1;rounded=0;fillColor=#fff2cc;strokeColor=#d6b656;entryX=0.014;entryY=0.671;entryDx=0;entryDy=0;entryPerimeter=0;exitX=0.921;exitY=0.243;exitDx=0;exitDy=0;exitPerimeter=0;" parent="1" source="4sDQIcopacmZ-OnVNA32-27" edge="1">
          <mxGeometry width="160" relative="1" as="geometry">
            <mxPoint x="472" y="1183" as="sourcePoint" />
            <mxPoint x="656" y="1097" as="targetPoint" />
          </mxGeometry>
        </mxCell>
        <mxCell id="4sDQIcopacmZ-OnVNA32-128" value="&amp;lt;&amp;lt;include&amp;gt;&amp;gt;" style="endArrow=open;endSize=12;dashed=1;html=1;rounded=0;entryX=0.5;entryY=0;entryDx=0;entryDy=0;fillColor=#fff2cc;strokeColor=#d6b656;exitX=0.557;exitY=1.043;exitDx=0;exitDy=0;exitPerimeter=0;" parent="1" source="4sDQIcopacmZ-OnVNA32-26" target="4sDQIcopacmZ-OnVNA32-12" edge="1">
          <mxGeometry width="160" relative="1" as="geometry">
            <mxPoint x="490" y="852" as="sourcePoint" />
            <mxPoint x="692" y="1037" as="targetPoint" />
          </mxGeometry>
        </mxCell>
        <mxCell id="4sDQIcopacmZ-OnVNA32-129" value="Authentification" style="ellipse;whiteSpace=wrap;html=1;fillColor=#fff2cc;strokeColor=#d6b656;" parent="1" vertex="1">
          <mxGeometry x="710" y="1610" width="140" height="70" as="geometry" />
        </mxCell>
        <mxCell id="4sDQIcopacmZ-OnVNA32-130" value="Authentification" style="ellipse;whiteSpace=wrap;html=1;fillColor=#fff2cc;strokeColor=#d6b656;" parent="1" vertex="1">
          <mxGeometry x="710" y="2530" width="140" height="70" as="geometry" />
        </mxCell>
        <mxCell id="4sDQIcopacmZ-OnVNA32-131" value="&amp;lt;&amp;lt;include&amp;gt;&amp;gt;" style="endArrow=open;endSize=12;dashed=1;html=1;rounded=0;entryX=0.414;entryY=-0.043;entryDx=0;entryDy=0;entryPerimeter=0;fillColor=#fff2cc;strokeColor=#d6b656;exitX=0.785;exitY=0.95;exitDx=0;exitDy=0;exitPerimeter=0;" parent="1" source="4sDQIcopacmZ-OnVNA32-41" target="4sDQIcopacmZ-OnVNA32-129" edge="1">
          <mxGeometry width="160" relative="1" as="geometry">
            <mxPoint x="490" y="1339" as="sourcePoint" />
            <mxPoint x="692" y="1524" as="targetPoint" />
          </mxGeometry>
        </mxCell>
        <mxCell id="4sDQIcopacmZ-OnVNA32-132" value="&amp;lt;&amp;lt;include&amp;gt;&amp;gt;" style="endArrow=open;endSize=12;dashed=1;html=1;rounded=0;entryX=0.621;entryY=-0.043;entryDx=0;entryDy=0;entryPerimeter=0;fillColor=#fff2cc;strokeColor=#d6b656;" parent="1" source="4sDQIcopacmZ-OnVNA32-45" target="4sDQIcopacmZ-OnVNA32-129" edge="1">
          <mxGeometry width="160" relative="1" as="geometry">
            <mxPoint x="472" y="1333" as="sourcePoint" />
            <mxPoint x="750" y="1621" as="targetPoint" />
          </mxGeometry>
        </mxCell>
        <mxCell id="4sDQIcopacmZ-OnVNA32-133" value="&amp;lt;&amp;lt;include&amp;gt;&amp;gt;" style="endArrow=open;endSize=12;dashed=1;html=1;rounded=0;entryX=0;entryY=0;entryDx=0;entryDy=0;fillColor=#fff2cc;strokeColor=#d6b656;" parent="1" target="4sDQIcopacmZ-OnVNA32-129" edge="1">
          <mxGeometry width="160" relative="1" as="geometry">
            <mxPoint x="500" y="1450" as="sourcePoint" />
            <mxPoint x="750" y="1621" as="targetPoint" />
          </mxGeometry>
        </mxCell>
        <mxCell id="4sDQIcopacmZ-OnVNA32-134" value="&amp;lt;&amp;lt;include&amp;gt;&amp;gt;" style="endArrow=open;endSize=12;dashed=1;html=1;rounded=0;entryX=0.086;entryY=0.243;entryDx=0;entryDy=0;entryPerimeter=0;fillColor=#fff2cc;strokeColor=#d6b656;exitX=0.764;exitY=0.943;exitDx=0;exitDy=0;exitPerimeter=0;" parent="1" source="4sDQIcopacmZ-OnVNA32-43" target="4sDQIcopacmZ-OnVNA32-129" edge="1">
          <mxGeometry width="160" relative="1" as="geometry">
            <mxPoint x="510" y="1460" as="sourcePoint" />
            <mxPoint x="760" y="1631" as="targetPoint" />
          </mxGeometry>
        </mxCell>
        <mxCell id="4sDQIcopacmZ-OnVNA32-135" value="&amp;lt;&amp;lt;include&amp;gt;&amp;gt;" style="endArrow=open;endSize=12;dashed=1;html=1;rounded=0;fillColor=#fff2cc;strokeColor=#d6b656;exitX=0.936;exitY=0.771;exitDx=0;exitDy=0;exitPerimeter=0;" parent="1" source="4sDQIcopacmZ-OnVNA32-39" edge="1">
          <mxGeometry width="160" relative="1" as="geometry">
            <mxPoint x="590" y="1572" as="sourcePoint" />
            <mxPoint x="710" y="1637" as="targetPoint" />
          </mxGeometry>
        </mxCell>
        <mxCell id="4sDQIcopacmZ-OnVNA32-136" value="&amp;lt;&amp;lt;include&amp;gt;&amp;gt;" style="endArrow=open;endSize=12;dashed=1;html=1;rounded=0;fillColor=#fff2cc;strokeColor=#d6b656;exitX=1;exitY=0.5;exitDx=0;exitDy=0;entryX=0;entryY=0.714;entryDx=0;entryDy=0;entryPerimeter=0;" parent="1" source="4sDQIcopacmZ-OnVNA32-46" target="4sDQIcopacmZ-OnVNA32-129" edge="1">
          <mxGeometry width="160" relative="1" as="geometry">
            <mxPoint x="420" y="1600" as="sourcePoint" />
            <mxPoint x="720" y="1647" as="targetPoint" />
            <mxPoint as="offset" />
          </mxGeometry>
        </mxCell>
        <mxCell id="4sDQIcopacmZ-OnVNA32-137" value="&amp;lt;&amp;lt;include&amp;gt;&amp;gt;" style="endArrow=open;endSize=12;dashed=1;html=1;rounded=0;fillColor=#fff2cc;strokeColor=#d6b656;exitX=1;exitY=1;exitDx=0;exitDy=0;entryX=0.402;entryY=-0.052;entryDx=0;entryDy=0;entryPerimeter=0;" parent="1" source="4sDQIcopacmZ-OnVNA32-102" target="4sDQIcopacmZ-OnVNA32-130" edge="1">
          <mxGeometry width="160" relative="1" as="geometry">
            <mxPoint x="160" y="2501" as="sourcePoint" />
            <mxPoint x="720" y="2500" as="targetPoint" />
            <mxPoint as="offset" />
          </mxGeometry>
        </mxCell>
        <mxCell id="4sDQIcopacmZ-OnVNA32-138" value="&amp;lt;&amp;lt;include&amp;gt;&amp;gt;" style="endArrow=open;endSize=12;dashed=1;html=1;rounded=0;fillColor=#fff2cc;strokeColor=#d6b656;exitX=0.998;exitY=0.667;exitDx=0;exitDy=0;entryX=0.248;entryY=0.09;entryDx=0;entryDy=0;entryPerimeter=0;exitPerimeter=0;" parent="1" source="4sDQIcopacmZ-OnVNA32-105" target="4sDQIcopacmZ-OnVNA32-130" edge="1">
          <mxGeometry width="160" relative="1" as="geometry">
            <mxPoint x="-81" y="2150" as="sourcePoint" />
            <mxPoint x="730" y="2510" as="targetPoint" />
            <mxPoint as="offset" />
          </mxGeometry>
        </mxCell>
        <mxCell id="4sDQIcopacmZ-OnVNA32-139" value="&amp;lt;&amp;lt;include&amp;gt;&amp;gt;" style="endArrow=open;endSize=12;dashed=1;html=1;rounded=0;fillColor=#fff2cc;strokeColor=#d6b656;exitX=1;exitY=1;exitDx=0;exitDy=0;entryX=0;entryY=0;entryDx=0;entryDy=0;" parent="1" source="4sDQIcopacmZ-OnVNA32-104" target="4sDQIcopacmZ-OnVNA32-130" edge="1">
          <mxGeometry width="160" relative="1" as="geometry">
            <mxPoint x="10" y="2265" as="sourcePoint" />
            <mxPoint x="740" y="2520" as="targetPoint" />
            <mxPoint as="offset" />
          </mxGeometry>
        </mxCell>
        <mxCell id="4sDQIcopacmZ-OnVNA32-140" value="&amp;lt;&amp;lt;include&amp;gt;&amp;gt;" style="endArrow=open;endSize=12;dashed=1;html=1;rounded=0;fillColor=#fff2cc;strokeColor=#d6b656;exitX=0.7;exitY=1.019;exitDx=0;exitDy=0;entryX=0;entryY=1;entryDx=0;entryDy=0;exitPerimeter=0;" parent="1" source="4sDQIcopacmZ-OnVNA32-103" target="4sDQIcopacmZ-OnVNA32-130" edge="1">
          <mxGeometry width="160" relative="1" as="geometry">
            <mxPoint x="149" y="2380" as="sourcePoint" />
            <mxPoint x="750" y="2530" as="targetPoint" />
            <mxPoint as="offset" />
          </mxGeometry>
        </mxCell>
        <mxCell id="4sDQIcopacmZ-OnVNA32-141" value="&amp;lt;&amp;lt;include&amp;gt;&amp;gt;" style="endArrow=open;endSize=12;dashed=1;html=1;rounded=0;fillColor=#fff2cc;strokeColor=#d6b656;entryX=0;entryY=0.5;entryDx=0;entryDy=0;" parent="1" target="4sDQIcopacmZ-OnVNA32-130" edge="1">
          <mxGeometry width="160" relative="1" as="geometry">
            <mxPoint x="370" y="2471" as="sourcePoint" />
            <mxPoint x="741" y="2600" as="targetPoint" />
            <mxPoint as="offset" />
          </mxGeometry>
        </mxCell>
        <mxCell id="4sDQIcopacmZ-OnVNA32-142" value="&amp;lt;&amp;lt;include&amp;gt;&amp;gt;" style="endArrow=open;endSize=12;dashed=1;html=1;rounded=0;fillColor=#fff2cc;strokeColor=#d6b656;exitX=0.962;exitY=0.876;exitDx=0;exitDy=0;entryX=0.402;entryY=-0.052;entryDx=0;entryDy=0;entryPerimeter=0;exitPerimeter=0;" parent="1" source="4sDQIcopacmZ-OnVNA32-50" edge="1">
          <mxGeometry width="160" relative="1" as="geometry">
            <mxPoint x="-81" y="2150" as="sourcePoint" />
            <mxPoint x="776" y="2536" as="targetPoint" />
            <mxPoint as="offset" />
          </mxGeometry>
        </mxCell>
        <mxCell id="4sDQIcopacmZ-OnVNA32-143" value="&amp;lt;&amp;lt;include&amp;gt;&amp;gt;" style="endArrow=open;endSize=12;dashed=1;html=1;rounded=0;fillColor=#fff2cc;strokeColor=#d6b656;exitX=0.731;exitY=0.948;exitDx=0;exitDy=0;entryX=1;entryY=0;entryDx=0;entryDy=0;exitPerimeter=0;" parent="1" source="4sDQIcopacmZ-OnVNA32-48" target="4sDQIcopacmZ-OnVNA32-130" edge="1">
          <mxGeometry width="160" relative="1" as="geometry">
            <mxPoint x="465" y="1881" as="sourcePoint" />
            <mxPoint x="786" y="2546" as="targetPoint" />
            <mxPoint as="offset" />
          </mxGeometry>
        </mxCell>
        <mxCell id="4sDQIcopacmZ-OnVNA32-144" value="&amp;lt;&amp;lt;include&amp;gt;&amp;gt;" style="endArrow=open;endSize=12;dashed=1;html=1;rounded=0;fillColor=#fff2cc;strokeColor=#d6b656;exitX=0.731;exitY=1.019;exitDx=0;exitDy=0;entryX=0.714;entryY=0.143;entryDx=0;entryDy=0;exitPerimeter=0;entryPerimeter=0;" parent="1" source="4sDQIcopacmZ-OnVNA32-56" target="4sDQIcopacmZ-OnVNA32-130" edge="1">
          <mxGeometry width="160" relative="1" as="geometry">
            <mxPoint x="606" y="1936" as="sourcePoint" />
            <mxPoint x="839" y="2550" as="targetPoint" />
            <mxPoint as="offset" />
          </mxGeometry>
        </mxCell>
        <mxCell id="4sDQIcopacmZ-OnVNA32-145" value="&amp;lt;&amp;lt;include&amp;gt;&amp;gt;" style="endArrow=open;endSize=12;dashed=1;html=1;rounded=0;fillColor=#fff2cc;strokeColor=#d6b656;exitX=0.781;exitY=0.995;exitDx=0;exitDy=0;entryX=0.402;entryY=-0.052;entryDx=0;entryDy=0;entryPerimeter=0;exitPerimeter=0;" parent="1" source="4sDQIcopacmZ-OnVNA32-49" edge="1">
          <mxGeometry width="160" relative="1" as="geometry">
            <mxPoint x="465" y="1881" as="sourcePoint" />
            <mxPoint x="786" y="2546" as="targetPoint" />
            <mxPoint as="offset" />
          </mxGeometry>
        </mxCell>
        <mxCell id="4sDQIcopacmZ-OnVNA32-146" value="&amp;lt;&amp;lt;include&amp;gt;&amp;gt;" style="endArrow=open;endSize=12;dashed=1;html=1;rounded=0;fillColor=#fff2cc;strokeColor=#d6b656;exitX=1;exitY=0.5;exitDx=0;exitDy=0;entryX=0.5;entryY=0;entryDx=0;entryDy=0;" parent="1" source="4sDQIcopacmZ-OnVNA32-52" target="4sDQIcopacmZ-OnVNA32-130" edge="1">
          <mxGeometry width="160" relative="1" as="geometry">
            <mxPoint x="456" y="2010" as="sourcePoint" />
            <mxPoint x="796" y="2556" as="targetPoint" />
            <mxPoint as="offset" />
          </mxGeometry>
        </mxCell>
        <mxCell id="4sDQIcopacmZ-OnVNA32-147" value="&amp;lt;&amp;lt;include&amp;gt;&amp;gt;" style="endArrow=open;endSize=12;dashed=1;html=1;rounded=0;fillColor=#fff2cc;strokeColor=#d6b656;exitX=1;exitY=0.5;exitDx=0;exitDy=0;" parent="1" source="4sDQIcopacmZ-OnVNA32-99" edge="1">
          <mxGeometry width="160" relative="1" as="geometry">
            <mxPoint x="410" y="2065" as="sourcePoint" />
            <mxPoint x="780" y="2520" as="targetPoint" />
            <mxPoint as="offset" />
          </mxGeometry>
        </mxCell>
        <mxCell id="4sDQIcopacmZ-OnVNA32-148" value="&amp;lt;&amp;lt;include&amp;gt;&amp;gt;" style="endArrow=open;endSize=12;dashed=1;html=1;rounded=0;fillColor=#fff2cc;strokeColor=#d6b656;exitX=1;exitY=1;exitDx=0;exitDy=0;entryX=0.319;entryY=-0.076;entryDx=0;entryDy=0;entryPerimeter=0;" parent="1" source="4sDQIcopacmZ-OnVNA32-101" target="4sDQIcopacmZ-OnVNA32-130" edge="1">
          <mxGeometry width="160" relative="1" as="geometry">
            <mxPoint x="450" y="2175" as="sourcePoint" />
            <mxPoint x="760" y="2540" as="targetPoint" />
            <mxPoint as="offset" />
          </mxGeometry>
        </mxCell>
      </root>
    </mxGraphModel>
  </diagram>
</mxfile>
